<?xml version="1.0" encoding="UTF-8"?>
<!-- Generator: visioncortex VTracer 0.6.12 -->
<svg version="1.1" xmlns="http://www.w3.org/2000/svg" width="1024" height="1024">
<path d="M0 0 C20.627 17.549 32.831 39.698 36.25 66.562 C36.502 70.967 36.504 75.356 36.477 79.767 C36.477 81.027 36.478 82.287 36.478 83.585 C36.479 86.999 36.467 90.414 36.453 93.828 C36.44 97.411 36.439 100.995 36.437 104.578 C36.431 111.346 36.414 118.113 36.394 124.881 C36.372 132.593 36.361 140.306 36.351 148.018 C36.33 163.866 36.294 179.714 36.25 195.562 C43.18 195.562 50.11 195.562 57.25 195.562 C57.25 193.252 57.25 190.942 57.25 188.562 C59.055 184.953 60.668 182.982 63.938 180.625 C68.347 179.211 71.809 179.26 76.25 180.562 C80.541 182.931 82.783 185.922 84.25 190.562 C84.511 193.459 84.511 193.459 84.525 196.688 C84.534 197.904 84.544 199.121 84.554 200.374 C84.553 201.029 84.553 201.029 84.551 204.348 C84.555 205.727 84.559 207.107 84.564 208.487 C84.571 211.386 84.571 214.286 84.566 217.185 C84.561 220.118 84.568 223.051 84.586 225.985 C84.873 272.157 74.905 311.707 42.25 345.562 C41.83 346.019 41.83 346.019 39.707 348.332 C15.832 373.579 -16.246 384.408 -49.75 389.562 C-49.75 416.293 -49.75 443.023 -49.75 470.562 C-44.14 470.562 -38.53 470.562 -32.75 470.562 C-18.776 471.738 -6.212 476.856 3.25 487.562 C12.434 499.417 15.467 512.252 15.312 527 C15.308 527.827 15.303 528.654 15.299 529.506 C15.287 531.525 15.269 533.544 15.25 535.562 C12.507 536.934 10.324 536.688 7.252 536.689 C5.974 536.692 4.695 536.695 3.377 536.698 C1.952 536.696 0.527 536.694 -0.898 536.692 C-2.393 536.693 -3.888 536.695 -5.382 536.697 C-9.448 536.702 -13.514 536.7 -17.58 536.697 C-21.829 536.694 -26.077 536.697 -30.326 536.698 C-37.461 536.7 -44.597 536.698 -51.732 536.693 C-59.991 536.687 -68.249 536.689 -76.507 536.695 C-83.588 536.699 -90.669 536.7 -97.75 536.697 C-101.983 536.696 -106.217 536.695 -110.45 536.699 C-114.429 536.702 -118.408 536.7 -122.387 536.694 C-123.851 536.693 -125.314 536.693 -126.777 536.695 C-128.769 536.698 -130.761 536.694 -132.752 536.689 C-133.869 536.689 -134.985 536.689 -136.136 536.688 C-138.75 536.562 -138.75 536.562 -140.75 535.562 C-141.258 516.703 -140.184 501.264 -127.5 486.25 C-113.409 471.382 -95.813 471.106 -75.75 469.562 C-75.75 443.163 -75.75 416.763 -75.75 389.562 C-83.34 388.243 -90.93 386.923 -98.75 385.562 C-121.562 378.784 -141.613 369.133 -159.75 353.562 C-160.655 352.792 -161.56 352.021 -162.492 351.227 C-168.99 345.52 -174.547 339.465 -179.75 332.562 C-180.478 331.6 -181.207 330.637 -181.957 329.645 C-201.601 302.5 -209.845 272.243 -209.953 239.016 C-209.956 238.337 -209.959 237.659 -209.962 236.96 C-209.977 233.38 -209.986 229.801 -209.99 226.221 C-209.996 222.541 -210.02 218.86 -210.048 215.18 C-210.067 212.33 -210.072 209.48 -210.074 206.63 C-210.078 204.617 -210.097 202.604 -210.116 200.591 C-210.113 199.363 -210.11 198.134 -210.106 196.868 C-210.108 196.33 -210.108 196.33 -210.117 193.608 C-209.553 188.93 -207.778 185.65 -204.562 182.25 C-200.997 180.11 -197.866 179.245 -193.75 179.562 C-189.587 180.826 -186.599 182.581 -183.75 185.875 C-182.75 188.562 -182.75 188.562 -182.75 195.562 C-175.82 195.562 -168.89 195.562 -161.75 195.562 C-161.757 193.982 -161.763 192.401 -161.77 190.773 C-161.831 175.826 -161.876 160.88 -161.905 145.933 C-161.921 138.25 -161.942 130.567 -161.976 122.884 C-162.006 116.181 -162.026 109.477 -162.032 102.773 C-162.036 99.23 -162.045 95.687 -162.067 92.144 C-162.25 61.584 -158.084 33.916 -136.75 10.562 C-136.053 9.784 -135.355 9.005 -134.637 8.203 C-121.76 -5.451 -103.9 -15.005 -85.75 -19.438 C-84.871 -19.662 -83.992 -19.886 -83.086 -20.117 C-54.092 -26.217 -23.008 -18.394 0 0 Z M-119.062 31.438 C-122.75 35.979 -122.75 35.979 -122.75 40.562 C-118.918 42.479 -113.927 41.895 -109.666 41.992 C-103.672 42.23 -98.499 43.088 -93.875 47.25 C-92.245 50.6 -91.601 53.866 -91.75 57.562 C-93.188 60.938 -93.188 60.938 -94.75 63.562 C-94.75 64.222 -94.75 64.882 -94.75 65.562 C-98.955 67.592 -102.797 67.885 -107.387 67.941 C-108.107 67.958 -108.828 67.975 -109.571 67.993 C-111.859 68.046 -114.148 68.086 -116.438 68.125 C-118.737 68.169 -121.037 68.216 -123.337 68.268 C-124.764 68.3 -126.192 68.327 -127.62 68.348 C-132.526 68.451 -132.526 68.451 -134.75 69.562 C-134.75 74.842 -134.75 80.123 -134.75 85.562 C-131.796 87.04 -128.786 86.719 -125.547 86.738 C-124.077 86.761 -122.607 86.786 -121.137 86.811 C-118.822 86.846 -116.507 86.875 -114.192 86.888 C-111.955 86.904 -109.72 86.944 -107.484 86.988 C-107.142 86.987 -107.142 86.987 -105.41 86.982 C-100.437 87.108 -97.593 88.465 -93.75 91.562 C-91.259 95.353 -91.526 99.061 -92.148 103.41 C-93.121 106.889 -94.886 108.462 -97.75 110.562 C-102.127 112.324 -105.908 112.841 -110.609 112.941 C-111.889 112.976 -113.169 113.01 -114.488 113.045 C-115.826 113.072 -117.163 113.099 -118.5 113.125 C-121.141 113.183 -123.781 113.248 -126.422 113.316 C-127.005 113.328 -127.005 113.328 -129.956 113.389 C-132.75 113.562 -132.75 113.562 -134.75 114.562 C-134.75 119.512 -134.75 124.462 -134.75 129.562 C-131.787 131.044 -129.07 130.729 -125.766 130.773 C-124.341 130.802 -122.917 130.83 -121.492 130.859 C-119.25 130.901 -117.007 130.937 -114.765 130.964 C-112.598 130.992 -110.432 131.038 -108.266 131.086 C-106.969 131.106 -105.673 131.126 -104.337 131.146 C-100.467 131.595 -98.036 132.494 -94.75 134.562 C-91.46 139.975 -91.309 143.607 -92.75 149.562 C-95.216 153.614 -97.29 155.148 -101.75 156.562 C-104.143 156.777 -106.547 156.894 -108.949 156.941 C-109.625 156.958 -110.302 156.975 -110.998 156.993 C-113.145 157.046 -115.291 157.086 -117.438 157.125 C-119.595 157.169 -121.752 157.216 -123.909 157.268 C-125.858 157.314 -127.807 157.352 -129.757 157.389 C-132.75 157.562 -132.75 157.562 -134.75 158.562 C-134.75 165.493 -134.75 172.423 -134.75 179.562 C-132.115 180.88 -130.159 180.688 -127.208 180.689 C-126.619 180.691 -126.619 180.691 -123.639 180.698 C-122.34 180.696 -121.041 180.694 -119.703 180.692 C-118.327 180.693 -116.95 180.695 -115.574 180.697 C-111.83 180.702 -108.087 180.7 -104.343 180.697 C-100.431 180.694 -96.519 180.697 -92.606 180.698 C-86.036 180.7 -79.465 180.698 -72.895 180.693 C-65.291 180.687 -57.687 180.689 -50.083 180.695 C-43.563 180.699 -37.042 180.7 -30.521 180.697 C-26.624 180.696 -22.726 180.695 -18.828 180.699 C-15.164 180.702 -11.5 180.7 -7.836 180.694 C-5.844 180.692 -3.853 180.695 -1.861 180.698 C-0.683 180.695 0.494 180.692 1.708 180.689 C2.222 180.689 2.222 180.689 4.823 180.688 C7.25 180.562 7.25 180.562 9.25 179.562 C9.25 172.632 9.25 165.702 9.25 158.562 C6.339 157.107 3.733 157.397 0.484 157.352 C-0.895 157.323 -2.273 157.295 -3.652 157.266 C-5.822 157.224 -7.992 157.188 -10.163 157.161 C-12.26 157.133 -14.356 157.087 -16.453 157.039 C-17.708 157.019 -18.962 156.999 -20.255 156.979 C-25.242 156.385 -29.577 154.571 -32.75 150.562 C-33.992 146.836 -34.284 143.433 -33.75 139.562 C-31.661 135.534 -30.011 133.134 -25.75 131.562 C-23.205 131.339 -20.758 131.214 -18.211 131.184 C-17.489 131.167 -16.767 131.15 -16.023 131.132 C-13.724 131.079 -11.424 131.039 -9.125 131 C-6.818 130.956 -4.512 130.909 -2.206 130.857 C-0.772 130.825 0.661 130.798 2.095 130.777 C7.027 130.674 7.027 130.674 9.25 129.562 C9.25 124.613 9.25 119.663 9.25 114.562 C6.4 113.138 3.921 113.398 0.738 113.352 C-0.577 113.323 -1.893 113.295 -3.248 113.266 C-5.337 113.225 -7.425 113.188 -9.514 113.161 C-11.535 113.133 -13.554 113.087 -15.574 113.039 C-16.782 113.019 -17.989 112.999 -19.233 112.979 C-24.573 112.347 -28.489 110.953 -32.188 106.875 C-34.077 102.869 -34.625 99.911 -33.75 95.562 C-31.735 91.81 -30.295 89.926 -26.75 87.562 C-24.165 87.334 -21.678 87.214 -19.09 87.184 C-18.344 87.167 -17.598 87.15 -16.83 87.132 C-14.449 87.079 -12.069 87.039 -9.688 87 C-7.303 86.956 -4.918 86.909 -2.534 86.857 C-1.051 86.825 0.433 86.798 1.917 86.777 C7.027 86.674 7.027 86.674 9.25 85.562 C9.25 80.283 9.25 75.002 9.25 69.562 C1.401 68.441 1.401 68.441 -2.711 68.535 C-3.595 68.547 -4.48 68.56 -5.391 68.572 C-7.206 68.607 -9.021 68.646 -10.836 68.689 C-18.031 68.778 -25.043 68.819 -30.75 64.062 C-33.998 60.003 -34.299 56.665 -33.75 51.562 C-32.106 47.864 -30.208 45.658 -26.75 43.562 C-23.934 42.691 -21.499 42.477 -18.562 42.562 C-7.018 42.696 -7.018 42.696 -2.75 40.562 C-4.061 31.417 -11.653 25.197 -18.613 19.766 C-50.612 -2.709 -93.189 1.062 -119.062 31.438 Z M-182.75 224.562 C-183.585 264.34 -176.773 296.905 -148.75 326.562 C-148.103 327.262 -147.456 327.962 -146.789 328.684 C-125.251 351.233 -93.695 362.162 -63.062 362.875 C-27.916 362.29 1.019 348.725 25.777 324.043 C52.461 295.962 58.072 261.866 57.25 224.562 C54.979 223.427 53.707 223.434 51.188 223.43 C50.391 223.428 49.594 223.427 48.773 223.426 C47.941 223.43 47.108 223.434 46.25 223.438 C45.834 223.436 45.834 223.436 43.727 223.426 C42.93 223.427 42.133 223.428 41.312 223.43 C40.947 223.43 40.947 223.43 39.098 223.433 C37.25 223.562 37.25 223.562 35.25 224.562 C35.245 224.97 35.245 224.97 35.222 227.031 C34.735 260.867 29.248 287.89 4.875 313.25 C-13.924 331.473 -38.951 339.975 -64.757 339.863 C-88.538 339.39 -111.001 330.402 -128.75 314.562 C-129.57 313.837 -130.39 313.111 -131.234 312.363 C-147.849 296.754 -158.591 273.946 -159.955 251.127 C-159.992 249.902 -160.029 248.677 -160.066 247.414 C-160.087 246.757 -160.108 246.099 -160.129 245.422 C-160.194 243.344 -160.253 241.266 -160.312 239.188 C-160.356 237.77 -160.399 236.352 -160.443 234.934 C-160.55 231.477 -160.651 228.02 -160.75 224.562 C-163.021 223.427 -164.293 223.434 -166.812 223.43 C-167.609 223.428 -168.406 223.427 -169.227 223.426 C-169.643 223.428 -169.643 223.428 -171.75 223.438 C-172.583 223.434 -173.415 223.43 -174.273 223.426 C-175.07 223.427 -175.867 223.428 -176.688 223.43 C-177.053 223.43 -177.053 223.43 -178.902 223.433 C-180.75 223.562 -180.75 223.562 -182.75 224.562 Z " fill="#010101" transform="translate(574.75,254.4375)"/>
<path d="M0 0 C5.048 2.431 6.842 4.93 9 10 C9.537 13.098 9.537 13.098 9.773 16.418 C9.873 17.659 9.973 18.899 10.075 20.177 C10.123 20.831 10.172 21.484 10.221 22.157 C14.701 81.356 36.786 138.613 78 182 C79.111 183.286 80.215 184.577 81.312 185.875 C88.92 194.592 97.21 202.666 106.285 209.84 C109.091 212.072 111.787 214.406 114.5 216.75 C120.526 221.824 126.977 226.172 133.59 230.446 C141.114 235.414 141.114 235.414 143 240 C143.721 246.382 142.844 249.841 139 255 C134.643 258.002 131.216 258.841 126 258 C115.297 253.263 106.101 245.217 97 238 C95.974 237.19 94.948 236.381 93.891 235.547 C76.578 221.637 59.375 205.775 46 188 C45.064 186.792 44.128 185.585 43.191 184.379 C6.845 137.172 -17.804 77.298 -18.25 17.125 C-18.271 16.406 -18.291 15.686 -18.312 14.945 C-18.346 10.413 -17.779 7.603 -15 4 C-10.264 -0.172 -6.092 -1.07 0 0 Z " fill="#010101" transform="translate(211,522)"/>
<path d="M0 0 C3.641 1.753 5.5 3.316 7.875 6.562 C19.372 41.692 -3.969 98.623 -19 130 C-19.336 130.71 -19.673 131.42 -20.02 132.151 C-38.564 171.107 -66.877 207.429 -101 234 C-102.162 234.949 -103.322 235.901 -104.48 236.855 C-129.327 257.236 -129.327 257.236 -138.25 258.438 C-143.017 257.881 -146.389 256.155 -150 253 C-151.783 250.195 -152.317 247.93 -152.375 244.625 C-152.403 243.895 -152.432 243.166 -152.461 242.414 C-151.514 237.452 -148.57 234.213 -144.566 231.359 C-143.238 230.48 -141.903 229.61 -140.562 228.75 C-139.121 227.791 -137.68 226.828 -136.242 225.863 C-135.884 225.624 -135.884 225.624 -134.073 224.413 C-125.67 218.687 -117.926 212.216 -110.48 205.297 C-108.358 203.332 -106.201 201.438 -104 199.562 C-96.03 192.603 -88.824 185.081 -82.242 176.801 C-79.913 173.891 -77.492 171.076 -75.062 168.25 C-69.464 161.526 -64.654 154.402 -60 147 C-59.598 146.365 -59.196 145.731 -58.782 145.077 C-36.532 109.603 -22.495 68.481 -19.516 26.625 C-19.438 25.545 -19.36 24.464 -19.28 23.351 C-19.138 21.25 -19.014 19.147 -18.909 17.043 C-18.53 11.135 -17.885 7.545 -14 3 C-9.793 -0.606 -5.309 -0.833 0 0 Z " fill="#010101" transform="translate(822,522)"/>
<path d="M0 0 C5.806 7.971 3.24 19.27 1.868 28.46 C-5.955 76.653 -26.59 122.12 -60 158 C-61.15 159.329 -62.296 160.663 -63.438 162 C-70.921 170.55 -79.131 177.927 -88 185 C-89.792 186.5 -91.584 188 -93.375 189.5 C-112.988 205.557 -112.988 205.557 -122.75 205.316 C-127.319 204.674 -130.014 202.183 -132.875 198.75 C-134.345 195.158 -134.867 191.776 -134 188 C-131.084 182.565 -127.218 179.558 -122.312 176.062 C-120.863 175.002 -119.414 173.941 -117.965 172.879 C-117.619 172.628 -117.619 172.628 -115.871 171.36 C-112.168 168.669 -108.557 165.879 -105 163 C-104.504 162.599 -104.007 162.198 -103.496 161.785 C-60.136 126.494 -30.912 72.847 -25.093 17.209 C-24.953 15.71 -24.827 14.209 -24.72 12.707 C-24.247 6.898 -22.826 2.733 -18.562 -1.312 C-12.471 -5.324 -5.776 -4.492 0 0 Z " fill="#010101" transform="translate(774,528)"/>
<path d="M0 0 C4.965 3.803 6.422 7.808 7.515 13.842 C7.64 14.815 7.765 15.787 7.895 16.789 C8.043 17.885 8.191 18.982 8.343 20.111 C8.42 20.691 8.42 20.691 8.812 23.625 C14.304 62.283 28.647 98.276 53 129 C53.643 129.835 54.286 130.671 54.949 131.531 C60.274 138.358 66.069 144.702 72 151 C72.617 151.66 73.235 152.32 73.871 153 C80.732 160.108 88.7 166.034 96.5 172.062 C97.041 172.482 97.583 172.901 98.141 173.333 C101.721 176.081 105.398 178.64 109.125 181.188 C113.637 184.481 115.928 186.447 117 192 C116.901 197.136 115.621 200.922 111.938 204.562 C108.485 207.109 105.646 207.899 101.375 207.574 C76.691 201.606 47.187 167.956 32 148 C31.76 147.688 31.76 147.688 30.548 146.108 C3.132 110.137 -14.277 67.851 -20 23 C-20.089 22.376 -20.089 22.376 -20.539 19.219 C-21.214 13.453 -21.567 8.672 -18.422 3.598 C-13.19 -2.281 -7.074 -3.092 0 0 Z " fill="#010101" transform="translate(267,526)"/>
<path d="M0 0 C4.743 2.506 8.124 5.251 9.78 10.448 C9.971 11.353 10.162 12.258 10.359 13.191 C10.472 13.7 10.472 13.7 11.041 16.276 C11.275 17.36 11.509 18.445 11.75 19.562 C17.961 46.703 29.453 72.961 48 94 C48.708 94.817 49.415 95.635 50.145 96.477 C52.389 99.025 54.681 101.519 57 104 C57.87 104.936 58.74 105.872 59.637 106.836 C66.538 114.081 74.087 120.138 82.117 126.09 C83.413 127.058 84.707 128.028 86 129 C86.589 129.441 87.179 129.881 87.786 130.335 C91.876 133.534 93.126 135.728 93.949 140.723 C94.053 145.382 91.969 148.621 89.375 152.312 C85.792 154.858 82.392 155.854 78 156 C66.875 152.292 56.931 142.156 48.496 134.309 C46.291 132.269 44.042 130.315 41.75 128.375 C37.761 124.893 34.404 121.045 31 117 C30.165 116.053 29.329 115.105 28.469 114.129 C21.537 106.222 15.528 97.942 10 89 C9.811 88.694 9.811 88.694 8.853 87.147 C-1.971 69.4 -9.793 50.092 -15 30 C-15.182 29.315 -15.364 28.63 -15.551 27.925 C-19.298 13.545 -19.298 13.545 -17 7 C-12.342 1.083 -7.559 -1.194 0 0 Z " fill="#010101" transform="translate(319,531)"/>
<path d="M0 0 C4.004 1.854 5.617 3.382 7.938 7.125 C10.574 14.361 7.712 23.242 5.875 30.438 C5.657 31.294 5.439 32.151 5.214 33.034 C1.429 47.395 -3.957 60.977 -10.963 74.062 C-11.652 75.35 -12.333 76.642 -13.006 77.938 C-21.533 94.357 -32.538 109.264 -45.494 122.463 C-47.059 124.06 -48.602 125.678 -50.145 127.297 C-57.069 134.48 -64.386 140.851 -72.393 146.803 C-73.893 147.921 -75.377 149.061 -76.859 150.203 C-85.077 156.329 -85.077 156.329 -91 156 C-95.452 154.62 -98.364 152.7 -101.5 149.25 C-103.473 144.975 -103.521 142.687 -103 138 C-101.073 134.109 -98.87 131.805 -95.438 129.188 C-94.547 128.497 -93.656 127.806 -92.738 127.094 C-91.835 126.403 -90.931 125.712 -90 125 C-82.3 119.026 -75.095 112.67 -68 106 C-67.313 105.379 -66.626 104.757 -65.918 104.117 C-42.448 82.08 -26.441 49.617 -20.023 18.344 C-19.861 17.575 -19.698 16.807 -19.531 16.015 C-19.229 14.554 -18.948 13.088 -18.694 11.618 C-17.557 6.034 -15.501 4.122 -11 1 C-7.521 -0.74 -3.804 -0.448 0 0 Z " fill="#010101" transform="translate(714,531)"/>
</svg>
